<?xml version="1.0" encoding="UTF-8" standalone="no"?>
<!-- Created with Inkscape (http://www.inkscape.org/) -->

<svg
   xmlns:dc="http://purl.org/dc/elements/1.1/"
   xmlns:cc="http://creativecommons.org/ns#"
   xmlns:rdf="http://www.w3.org/1999/02/22-rdf-syntax-ns#"
   xmlns:svg="http://www.w3.org/2000/svg"
   xmlns="http://www.w3.org/2000/svg"
   xmlns:xlink="http://www.w3.org/1999/xlink"
   xmlns:sodipodi="http://sodipodi.sourceforge.net/DTD/sodipodi-0.dtd"
   xmlns:inkscape="http://www.inkscape.org/namespaces/inkscape"
   width="4.5155554mm"
   height="4.5155554mm"
   viewBox="0 0 15.999999 15.999999"
   id="svg4819"
   version="1.1"
   inkscape:version="0.91 r13725"
   sodipodi:docname="InterSignaalGroepTab.svg">
  <defs
     id="defs4821">
    <radialGradient
       gradientTransform="matrix(0.64,0,0,0.64,260.13091,314.18635)"
       inkscape:collect="always"
       xlink:href="#linearGradient5850"
       id="radialGradient5880"
       cx="122.04362"
       cy="295.60361"
       fx="122.04362"
       fy="295.60361"
       r="12.5"
       gradientUnits="userSpaceOnUse" />
    <linearGradient
       inkscape:collect="always"
       id="linearGradient5850">
      <stop
         style="stop-color:#ffffff;stop-opacity:1"
         offset="0"
         id="stop5852" />
      <stop
         style="stop-color:#afe9dd;stop-opacity:1"
         offset="1"
         id="stop5854" />
    </linearGradient>
  </defs>
  <sodipodi:namedview
     id="base"
     pagecolor="#ffffff"
     bordercolor="#666666"
     borderopacity="1.0"
     inkscape:pageopacity="0.0"
     inkscape:pageshadow="2"
     inkscape:zoom="23.759968"
     inkscape:cx="2.8411493"
     inkscape:cy="4.5962967"
     inkscape:document-units="px"
     inkscape:current-layer="layer1"
     showgrid="false"
     inkscape:window-width="1680"
     inkscape:window-height="974"
     inkscape:window-x="-9"
     inkscape:window-y="-9"
     inkscape:window-maximized="1"
     fit-margin-top="0"
     fit-margin-left="0"
     fit-margin-right="0"
     fit-margin-bottom="0"
     inkscape:snap-center="true"
     inkscape:snap-object-midpoints="true"
     inkscape:snap-bbox="false"
     inkscape:object-paths="true"
     inkscape:snap-intersection-paths="true"
     inkscape:object-nodes="true"
     inkscape:snap-smooth-nodes="true"
     inkscape:snap-midpoints="true"
     inkscape:snap-bbox-midpoints="true"
     inkscape:snap-page="true"
     inkscape:snap-global="true">
    <inkscape:grid
       type="xygrid"
       id="grid2993" />
  </sodipodi:namedview>
  <metadata
     id="metadata4824">
    <rdf:RDF>
      <cc:Work
         rdf:about="">
        <dc:format>image/svg+xml</dc:format>
        <dc:type
           rdf:resource="http://purl.org/dc/dcmitype/StillImage" />
        <dc:title />
      </cc:Work>
    </rdf:RDF>
  </metadata>
  <g
     inkscape:label="Layer 1"
     inkscape:groupmode="layer"
     id="layer1"
     transform="translate(-330.23883,-495.37265)">
    <rect
       style="color:#000000;fill:#b3b3b3;fill-opacity:1;fill-rule:nonzero;stroke:none;stroke-width:1.70000005;marker:none;visibility:visible;display:inline;overflow:visible;enable-background:accumulate"
       id="rect3769"
       width="2.3933287"
       height="2.3933287"
       x="340.71509"
       y="505.84891"
       rx="0"
       ry="0.82021207" />
    <rect
       style="color:#000000;fill:#b3b3b3;fill-opacity:1;fill-rule:nonzero;stroke:none;stroke-width:1.70000005;marker:none;visibility:visible;display:inline;overflow:visible;enable-background:accumulate"
       id="rect3765"
       width="4.370934"
       height="4.370934"
       x="331.97324"
       y="497.10706"
       rx="0"
       ry="0.82021207" />
    <rect
       ry="0.82021207"
       rx="0"
       y="501.47797"
       x="336.34415"
       height="4.370934"
       width="4.370934"
       id="rect3767"
       style="color:#000000;fill:#b3b3b3;fill-opacity:1;fill-rule:nonzero;stroke:none;stroke-width:1.70000005000000010;marker:none;visibility:visible;display:inline;overflow:visible;enable-background:accumulate" />
    <path
       style="fill:none;stroke:#666666;stroke-width:0.60000002;stroke-linecap:butt;stroke-linejoin:miter;stroke-miterlimit:4;stroke-opacity:1;stroke-dasharray:none"
       d="m 331.77032,501.47796 12.95356,1e-5"
       id="path3870"
       inkscape:connector-curvature="0"
       sodipodi:nodetypes="cc" />
    <path
       sodipodi:nodetypes="cc"
       inkscape:connector-curvature="0"
       id="path3872"
       d="m 331.88302,505.8489 11.2254,10e-6"
       style="fill:none;stroke:#666666;stroke-width:0.60000002;stroke-linecap:butt;stroke-linejoin:miter;stroke-miterlimit:4;stroke-opacity:1;stroke-dasharray:none" />
    <path
       sodipodi:nodetypes="cc"
       inkscape:connector-curvature="0"
       id="path3868"
       d="m 336.34414,509.98326 1e-5,-13.07912"
       style="fill:none;stroke:#666666;stroke-width:0.60000002;stroke-linecap:butt;stroke-linejoin:miter;stroke-miterlimit:4;stroke-opacity:1;stroke-dasharray:none" />
    <path
       style="fill:none;stroke:#666666;stroke-width:0.60000002;stroke-linecap:butt;stroke-linejoin:miter;stroke-miterlimit:4;stroke-opacity:1;stroke-dasharray:none"
       d="m 10.476258,12.861905 4e-6,-11.5409832"
       id="path3835"
       inkscape:connector-curvature="0"
       transform="translate(330.23883,495.37265)"
       sodipodi:nodetypes="cc" />
    <g
       style="font-style:normal;font-variant:normal;font-weight:bold;font-stretch:normal;font-size:3.40345073px;line-height:125%;font-family:'Anonymous Pro';-inkscape-font-specification:'Sans Bold';letter-spacing:0px;word-spacing:0px;fill:#000000;fill-opacity:1;stroke:none"
       id="text3778">
      <path
         d="m 342.45932,500.37604 -1.04031,0 0,-0.3091 0.34899,0 0,-1.23309 q -0.0233,0.0814 -0.0814,0.14458 -0.0565,0.0632 -0.13793,0.10636 -0.0798,0.0415 -0.17948,0.0648 -0.0981,0.0216 -0.20275,0.0216 l 0,-0.344 q 0.11301,0 0.21937,-0.0366 0.10802,-0.0382 0.19277,-0.11467 0.0847,-0.0764 0.13627,-0.19111 0.0532,-0.11633 0.0532,-0.27753 l 0.344,0 0,1.85961 0.34732,0 0,0.3091 z"
         style=""
         id="path4151" />
      <path
         d="m 342.97283,499.29086 q 0,-0.21771 0.0465,-0.42045 0.0465,-0.20275 0.14458,-0.3573 0.098,-0.15455 0.25592,-0.24761 0.15954,-0.0947 0.38388,-0.0947 0.22435,0 0.38223,0.0947 0.15953,0.0931 0.25924,0.24761 0.0997,0.15455 0.14459,0.3573 0.0449,0.20274 0.0449,0.42045 0,0.2177 -0.0449,0.42044 -0.0449,0.20108 -0.14292,0.35896 -0.0981,0.15621 -0.25759,0.25094 -0.15787,0.0931 -0.38555,0.0931 -0.22767,0 -0.3872,-0.0931 -0.15788,-0.0947 -0.25759,-0.25094 -0.0981,-0.15788 -0.14126,-0.35896 -0.0449,-0.20274 -0.0449,-0.42044 z m 0.344,0 q 0,0.15288 0.0199,0.2958 l 0.85086,-0.85418 q -0.0565,-0.11301 -0.14957,-0.18281 -0.0914,-0.0698 -0.23432,-0.0698 -0.23764,0 -0.36228,0.21437 -0.12464,0.21438 -0.12464,0.59661 z m 0.48692,0.81264 q 0.14625,0 0.23931,-0.0715 0.0947,-0.0715 0.1479,-0.18613 0.0548,-0.11633 0.0764,-0.26257 0.0233,-0.14624 0.0233,-0.29248 0,-0.1396 -0.0199,-0.27255 l -0.84421,0.84754 q 0.0565,0.10802 0.14458,0.17283 0.0897,0.0648 0.23265,0.0648 z"
         style=""
         id="path4153" />
    </g>
    <path
       style="fill:none;stroke:#000000;stroke-width:1.7324841;stroke-linecap:round;stroke-linejoin:miter;stroke-miterlimit:4;stroke-opacity:1;stroke-dasharray:none"
       d="m 331.10507,510.50641 0,-14.26752 14.26752,0"
       id="path2995"
       inkscape:connector-curvature="0" />
    <g
       style="font-style:normal;font-variant:normal;font-weight:bold;font-stretch:normal;font-size:3.40345073px;line-height:125%;font-family:'Anonymous Pro';-inkscape-font-specification:'Sans Bold';letter-spacing:0px;word-spacing:0px;fill:#000000;fill-opacity:1;stroke:none"
       id="text3812">
      <path
         d="m 333.32779,508.03271 q 0,-0.2177 0.0465,-0.42045 0.0465,-0.20274 0.14458,-0.35729 0.0981,-0.15456 0.25592,-0.24762 0.15954,-0.0947 0.38389,-0.0947 0.22435,0 0.38222,0.0947 0.15954,0.0931 0.25925,0.24762 0.0997,0.15455 0.14458,0.35729 0.0449,0.20275 0.0449,0.42045 0,0.2177 -0.0449,0.42044 -0.0449,0.20109 -0.14292,0.35896 -0.0981,0.15621 -0.25758,0.25094 -0.15788,0.0931 -0.38555,0.0931 -0.22767,0 -0.38721,-0.0931 -0.15787,-0.0947 -0.25759,-0.25094 -0.098,-0.15787 -0.14125,-0.35896 -0.0449,-0.20274 -0.0449,-0.42044 z m 0.344,0 q 0,0.15289 0.0199,0.2958 l 0.85086,-0.85418 q -0.0565,-0.11301 -0.14956,-0.1828 -0.0914,-0.0698 -0.23432,-0.0698 -0.23764,0 -0.36228,0.21438 -0.12464,0.21437 -0.12464,0.5966 z m 0.48692,0.81264 q 0.14624,0 0.2393,-0.0715 0.0947,-0.0715 0.14791,-0.18613 0.0548,-0.11633 0.0764,-0.26257 0.0233,-0.14624 0.0233,-0.29248 0,-0.1396 -0.0199,-0.27254 l -0.84422,0.84753 q 0.0565,0.10802 0.14458,0.17284 0.0897,0.0648 0.23266,0.0648 z"
         style=""
         id="path4156" />
    </g>
  </g>
</svg>
