<?xml version="1.0" encoding="UTF-8" standalone="no"?>
<!-- Created with Inkscape (http://www.inkscape.org/) -->

<svg
   xmlns:dc="http://purl.org/dc/elements/1.1/"
   xmlns:cc="http://creativecommons.org/ns#"
   xmlns:rdf="http://www.w3.org/1999/02/22-rdf-syntax-ns#"
   xmlns:svg="http://www.w3.org/2000/svg"
   xmlns="http://www.w3.org/2000/svg"
   xmlns:xlink="http://www.w3.org/1999/xlink"
   xmlns:sodipodi="http://sodipodi.sourceforge.net/DTD/sodipodi-0.dtd"
   xmlns:inkscape="http://www.inkscape.org/namespaces/inkscape"
   width="4.5155554mm"
   height="4.5155554mm"
   viewBox="0 0 15.999999 15.999999"
   id="svg4819"
   version="1.1"
   inkscape:version="0.92.3 (2405546, 2018-03-11)"
   sodipodi:docname="ToolsTab.svg">
  <defs
     id="defs4821">
    <marker
       inkscape:stockid="Arrow1Send"
       orient="auto"
       refY="0.0"
       refX="0.0"
       id="Arrow1Send"
       style="overflow:visible;">
      <path
         id="path3966"
         d="M 0.0,0.0 L 5.0,-5.0 L -12.5,0.0 L 5.0,5.0 L 0.0,0.0 z "
         style="fill-rule:evenodd;stroke:#000000;stroke-width:1.0pt;"
         transform="scale(0.2) rotate(180) translate(6,0)" />
    </marker>
    <radialGradient
       gradientTransform="matrix(0.64,0,0,0.64,260.13091,314.18635)"
       inkscape:collect="always"
       xlink:href="#linearGradient5850"
       id="radialGradient5880"
       cx="122.04362"
       cy="295.60361"
       fx="122.04362"
       fy="295.60361"
       r="12.5"
       gradientUnits="userSpaceOnUse" />
    <linearGradient
       inkscape:collect="always"
       id="linearGradient5850">
      <stop
         style="stop-color:#ffffff;stop-opacity:1"
         offset="0"
         id="stop5852" />
      <stop
         style="stop-color:#afe9dd;stop-opacity:1"
         offset="1"
         id="stop5854" />
    </linearGradient>
  </defs>
  <sodipodi:namedview
     id="base"
     pagecolor="#ffffff"
     bordercolor="#666666"
     borderopacity="1.0"
     inkscape:pageopacity="0.0"
     inkscape:pageshadow="2"
     inkscape:zoom="44.216524"
     inkscape:cx="8.6875"
     inkscape:cy="8.84375"
     inkscape:document-units="px"
     inkscape:current-layer="layer1"
     showgrid="false"
     inkscape:window-width="1920"
     inkscape:window-height="1137"
     inkscape:window-x="-8"
     inkscape:window-y="-8"
     inkscape:window-maximized="1"
     fit-margin-top="0"
     fit-margin-left="0"
     fit-margin-right="0"
     fit-margin-bottom="0"
     inkscape:snap-center="true"
     inkscape:snap-object-midpoints="true"
     inkscape:snap-bbox="false"
     inkscape:object-paths="true"
     inkscape:snap-intersection-paths="true"
     inkscape:object-nodes="true"
     inkscape:snap-smooth-nodes="true"
     inkscape:snap-midpoints="true"
     inkscape:snap-bbox-midpoints="true"
     inkscape:snap-page="true"
     inkscape:snap-global="false">
    <inkscape:grid
       type="xygrid"
       id="grid4645" />
  </sodipodi:namedview>
  <metadata
     id="metadata4824">
    <rdf:RDF>
      <cc:Work
         rdf:about="">
        <dc:format>image/svg+xml</dc:format>
        <dc:type
           rdf:resource="http://purl.org/dc/dcmitype/StillImage" />
        <dc:title />
      </cc:Work>
    </rdf:RDF>
  </metadata>
  <g
     inkscape:label="Layer 1"
     inkscape:groupmode="layer"
     id="layer1"
     transform="translate(-330.23883,-495.37265)">
    <path
       style="opacity:1;vector-effect:none;fill:#666666;fill-opacity:1;stroke:#000000;stroke-width:0.40530339;stroke-linecap:butt;stroke-linejoin:miter;stroke-miterlimit:4;stroke-dasharray:none;stroke-dashoffset:0;stroke-opacity:1"
       d="m 343.96916,495.90334 a 3.2758444,3.2758444 0 0 0 -1.22725,-0.25887 l -0.001,-0.001 a 3.2758444,3.2758444 0 0 0 -2.36494,0.95997 3.2758444,3.2758444 0 0 0 -0.75848,3.43408 l -4.71449,4.71452 a 3.2758444,3.2758444 0 0 0 -3.43408,0.75845 3.2758444,3.2758444 0 0 0 -0.95997,2.36496 l 10e-4,9.9e-4 a 3.2758444,3.2758444 0 0 0 0.25889,1.22726 l 2.28658,-2.28659 c 1.26084,-0.072 1.78915,0.55705 1.74084,1.74083 l -2.2838,2.28658 a 3.2758444,3.2758444 0 0 0 3.58942,-0.70108 3.2758444,3.2758444 0 0 0 0.75286,-3.45367 l 4.70191,-4.70191 a 3.2758444,3.2758444 0 0 0 3.45227,-0.75147 3.2758444,3.2758444 0 0 0 0.70249,-3.59081 l -2.28659,2.28379 c -1.18378,0.0483 -1.8128,-0.48 -1.74082,-1.74083 z"
       id="path837"
       inkscape:connector-curvature="0" />
  </g>
</svg>
