<?xml version="1.0" encoding="UTF-8" standalone="no"?>
<!-- Created with Inkscape (http://www.inkscape.org/) -->

<svg
   xmlns:dc="http://purl.org/dc/elements/1.1/"
   xmlns:cc="http://creativecommons.org/ns#"
   xmlns:rdf="http://www.w3.org/1999/02/22-rdf-syntax-ns#"
   xmlns:svg="http://www.w3.org/2000/svg"
   xmlns="http://www.w3.org/2000/svg"
   xmlns:sodipodi="http://sodipodi.sourceforge.net/DTD/sodipodi-0.dtd"
   xmlns:inkscape="http://www.inkscape.org/namespaces/inkscape"
   width="34.133335"
   height="34.133335"
   id="svg2"
   version="1.1"
   inkscape:version="0.92.1 r15371"
   sodipodi:docname="SplashScreen.svg"
   inkscape:export-filename="C:\Users\NL33478\Source\Repos\TLCGen\TLCGen\Resources\MenuIcons\AppSplash.png"
   inkscape:export-xdpi="562.5"
   inkscape:export-ydpi="562.5">
  <defs
     id="defs4" />
  <sodipodi:namedview
     id="base"
     pagecolor="#ffffff"
     bordercolor="#666666"
     borderopacity="1.0"
     inkscape:pageopacity="0.0"
     inkscape:pageshadow="2"
     inkscape:zoom="14.313433"
     inkscape:cx="26.827945"
     inkscape:cy="14.464929"
     inkscape:document-units="px"
     inkscape:current-layer="layer1"
     showgrid="false"
     inkscape:window-width="1920"
     inkscape:window-height="1125"
     inkscape:window-x="1671"
     inkscape:window-y="-9"
     inkscape:window-maximized="1"
     inkscape:snap-global="true"
     inkscape:snap-page="true">
    <inkscape:grid
       type="xygrid"
       id="grid2989"
       empspacing="5"
       visible="true"
       enabled="true"
       snapvisiblegridlinesonly="true"
       originx="0"
       originy="0"
       spacingx="1.0666667"
       spacingy="1.0666667" />
  </sodipodi:namedview>
  <metadata
     id="metadata7">
    <rdf:RDF>
      <cc:Work
         rdf:about="">
        <dc:format>image/svg+xml</dc:format>
        <dc:type
           rdf:resource="http://purl.org/dc/dcmitype/StillImage" />
        <dc:title></dc:title>
      </cc:Work>
    </rdf:RDF>
  </metadata>
  <g
     inkscape:label="Layer 1"
     inkscape:groupmode="layer"
     id="layer1"
     transform="translate(0,-1088.3863)">
    <rect
       style="opacity:1;vector-effect:none;fill:#ffffff;fill-opacity:1;stroke:none;stroke-width:2.89671516;stroke-linecap:butt;stroke-linejoin:miter;stroke-miterlimit:4;stroke-dasharray:none;stroke-dashoffset:0;stroke-opacity:1"
       id="rect822"
       width="34.133335"
       height="34.133335"
       x="0"
       y="1088.3864" />
    <g
       id="g3766"
       transform="matrix(0.44811268,0,0,0.44811268,1.245899,656.45143)">
      <g
         id="text2985"
         style="font-style:normal;font-variant:normal;font-weight:normal;font-stretch:normal;font-size:40px;line-height:125%;font-family:'Anonymous Pro';-inkscape-font-specification:'Anonymous Pro';letter-spacing:0px;word-spacing:0px;fill:#000000;fill-opacity:1;stroke:none">
        <path
           id="path3762"
           style="font-weight:bold;-inkscape-font-specification:'Anonymous Pro Bold';stroke-width:1.06666672"
           d="m 9.1711426,993.85645 c -7.9e-6,1.58334 0.1770753,3.16668 0.5312499,4.74999 0.3541585,1.58336 0.8715185,3.10066 1.5520835,4.55206 0.680545,1.4514 1.520822,2.8229 2.520833,4.1146 0.999987,1.2917 2.138874,2.4375 3.416666,3.4375 l -2.645832,2.6458 c -1.486123,-1.1666 -2.805566,-2.4895 -3.958334,-3.9687 -1.1527856,-1.4792 -2.1180624,-3.059 -2.8958331,-4.7396 -0.7777834,-1.6805 -1.3750049,-3.4305 -1.7916667,-5.24999 -0.4166708,-1.81943 -0.6250039,-3.66665 -0.625,-5.54166 -3.9e-6,-1.87499 0.2083292,-3.72569 0.625,-5.55209 0.4166618,-1.82637 1.0138833,-3.57637 1.7916667,-5.25 0.7777707,-1.67358 1.7430475,-3.24998 2.8958331,-4.72917 1.152768,-1.47913 2.472211,-2.80204 3.958334,-3.96874 l 2.645832,2.64583 c -1.277792,0.98614 -2.416679,2.12849 -3.416666,3.42709 -1.000011,1.29863 -1.840288,2.67363 -2.520833,4.12499 -0.680565,1.45141 -1.197925,2.9653 -1.5520835,4.54167 -0.3541746,1.57641 -0.5312578,3.1632 -0.5312499,4.76042 z"
           inkscape:connector-curvature="0" />
        <path
           id="path3764"
           style="font-weight:bold;-inkscape-font-specification:'Anonymous Pro Bold';stroke-width:1.06666672"
           d="m 59.71281,993.89811 c -1.2e-5,-1.5972 -0.177096,-3.18401 -0.531251,-4.76041 -0.354178,-1.57638 -0.871538,-3.09027 -1.552083,-4.54167 -0.680565,-1.45137 -1.520841,-2.82637 -2.520834,-4.125 -1.000005,-1.29858 -2.138894,-2.44095 -3.416667,-3.42708 l 2.645834,-2.64584 c 1.486104,1.1667 2.79513,2.48961 3.927084,3.96875 1.131933,1.4792 2.097209,3.05558 2.895833,4.72917 0.798597,1.67363 1.406235,3.42363 1.822917,5.25 0.416651,1.82641 0.624984,3.6771 0.624999,5.55208 -1.5e-5,1.87501 -0.208348,3.72223 -0.624999,5.54167 -0.416682,1.81942 -1.02432,3.56942 -1.822917,5.25002 -0.798624,1.6805 -1.7639,3.2604 -2.895833,4.7396 -1.131954,1.4791 -2.44098,2.802 -3.927084,3.9687 l -2.645834,-2.6458 c 1.277773,-1 2.416662,-2.1459 3.416667,-3.4375 0.999993,-1.2917 1.840269,-2.6632 2.520834,-4.1146 0.680545,-1.4514 1.197905,-2.9687 1.552083,-4.55209 0.354155,-1.58332 0.531239,-3.16666 0.531251,-4.75 z"
           inkscape:connector-curvature="0" />
      </g>
      <path
         sodipodi:nodetypes="ccccccc"
         inkscape:connector-curvature="0"
         id="path2991"
         d="m 26.27024,1021.1164 19.067403,-27.23914 h -8.171744 l 5.447829,-27.23915 -19.067403,27.23915 h 8.171744 z"
         style="fill:#00ff00;stroke:#000000;stroke-width:2.92493987;stroke-linecap:butt;stroke-linejoin:round;stroke-miterlimit:4;stroke-dasharray:none;stroke-opacity:1" />
    </g>
    <text
       xml:space="preserve"
       style="font-style:normal;font-weight:normal;font-size:23.51991272px;line-height:1.25;font-family:sans-serif;letter-spacing:0px;word-spacing:0px;fill:#000000;fill-opacity:1;stroke:none;stroke-width:0.58799779"
       x="2.0260692"
       y="1121.4061"
       id="text820"><tspan
         sodipodi:role="line"
         id="tspan818"
         x="2.0260692"
         y="1121.4061"
         style="font-style:normal;font-variant:normal;font-weight:normal;font-stretch:normal;font-size:9.40796471px;font-family:'Anonymous Pro';-inkscape-font-specification:'Anonymous Pro';stroke-width:0.58799779">TLCGen</tspan></text>
  </g>
</svg>
